<svg width="461" height="376" viewBox="0 0 461 376" fill="none" xmlns="http://www.w3.org/2000/svg">
<g filter="url(#filter0_d_28_3)">
<g filter="url(#filter1_d_28_3)">
<path d="M153.971 271.448C139.695 281.234 123.218 286.892 106.201 287.853C89.1832 288.814 72.2253 285.043 57.0344 276.921C41.8434 268.798 28.9557 256.611 19.6686 241.585C10.3815 226.559 5.02301 209.226 4.13251 191.33C3.24202 173.434 6.85099 155.607 14.5961 139.644C22.3412 123.681 33.949 110.146 48.2508 100.4C62.5527 90.6552 79.0438 85.0441 96.0637 84.1322C113.084 83.2202 130.032 87.0395 145.201 95.2056L132.271 121.767C121.539 115.99 109.549 113.288 97.5078 113.933C85.4669 114.578 73.8002 118.548 63.6822 125.442C53.5643 132.336 45.3523 141.912 39.873 153.205C34.3936 164.498 31.8404 177.11 32.4704 189.771C33.1004 202.431 36.8913 214.694 43.4615 225.324C50.0317 235.954 59.1493 244.576 69.8962 250.323C80.6432 256.069 92.6401 258.737 104.679 258.057C116.718 257.377 128.375 253.374 138.475 246.451L153.971 271.448Z" fill="#80C8EF"/>
</g>
<g filter="url(#filter2_d_28_3)">
<path d="M307.029 274.448C321.734 284.528 338.764 290.223 356.305 290.926C373.846 291.629 391.239 287.314 406.631 278.44C422.023 269.567 434.837 256.468 443.706 240.539C452.576 224.61 457.169 206.449 456.995 187.992C456.822 169.535 451.889 151.473 442.721 135.731C433.554 119.99 420.497 107.16 404.941 98.608C389.385 90.0561 371.914 86.1032 354.39 87.1707C336.866 88.2383 319.946 94.2862 305.433 104.67L321.396 129.34C331.663 121.994 343.634 117.715 356.031 116.96C368.429 116.205 380.789 119.001 391.794 125.052C402.799 131.102 412.036 140.179 418.522 151.315C425.007 162.451 428.497 175.229 428.62 188.287C428.743 201.345 425.493 214.193 419.219 225.462C412.944 236.73 403.879 245.998 392.99 252.275C382.1 258.553 369.795 261.606 357.386 261.108C344.977 260.611 332.928 256.582 322.525 249.451L307.029 274.448Z" fill="#80C8EF"/>
</g>
<g filter="url(#filter3_d_28_3)">
<path d="M320.986 131.038C325.921 113.567 326.313 95.0236 322.122 77.3384C317.931 59.6532 309.311 43.4718 297.157 30.4774C285.004 17.483 269.761 8.15027 253.015 3.45008C236.269 -1.25011 218.631 -1.14608 201.935 3.75135C185.24 8.64878 170.098 18.1607 158.084 31.2977C146.07 44.4346 137.622 60.7167 133.621 78.4502C129.619 96.1838 130.209 114.721 135.33 132.133C140.45 149.546 149.914 165.197 162.736 177.46L183.437 153.526C174.681 145.153 168.219 134.465 164.722 122.576C161.226 110.686 160.823 98.0285 163.556 85.9197C166.288 73.8108 172.056 62.693 180.26 53.7228C188.463 44.7526 198.803 38.2576 210.203 34.9136C221.602 31.5695 233.646 31.4985 245.081 34.7078C256.515 37.9172 266.923 44.2898 275.222 53.1627C283.521 62.0356 289.407 73.0847 292.269 85.1605C295.13 97.2364 294.862 109.898 291.493 121.828L320.986 131.038Z" fill="#80C8EF"/>
</g>
<g filter="url(#filter4_d_28_3)">
<path d="M136.737 246.781C133.506 264.492 134.798 282.787 140.481 299.801C146.164 316.816 156.036 331.942 169.089 343.638C182.143 355.334 197.912 363.182 214.79 366.382C231.667 369.581 249.05 368.019 265.166 361.852C281.282 355.686 295.555 345.138 306.531 331.281C317.507 317.425 324.794 300.756 327.647 282.974C330.501 265.192 328.821 246.932 322.777 230.055C316.734 213.178 306.543 198.288 293.244 186.902L274.945 210.536C284.27 218.52 291.416 228.961 295.654 240.795C299.891 252.629 301.07 265.433 299.069 277.902C297.067 290.371 291.958 302.059 284.262 311.776C276.565 321.492 266.557 328.889 255.256 333.212C243.955 337.536 231.767 338.632 219.932 336.388C208.097 334.145 197.04 328.642 187.887 320.44C178.733 312.239 171.811 301.633 167.826 289.702C163.841 277.771 162.935 264.942 165.201 252.524L136.737 246.781Z" fill="#80C8EF"/>
</g>
<g filter="url(#filter5_d_28_3)">
<path d="M246.464 178.416C244.434 173.669 248.065 168.433 253.223 168.671L301.07 170.881C306.567 171.135 309.635 177.34 306.499 181.862L277.49 223.69C274.354 228.212 267.467 227.514 265.302 222.454L246.464 178.416Z" fill="#80C8EF"/>
</g>
<g filter="url(#filter6_d_28_3)">
<path d="M218.246 186.154C220.264 190.906 216.618 196.134 211.461 195.882L163.62 193.545C158.124 193.277 155.072 187.063 158.22 182.549L187.34 140.798C190.488 136.284 197.373 137.001 199.524 142.066L218.246 186.154Z" fill="#80C8EF"/>
</g>
</g>
<defs>
<filter id="filter0_d_28_3" x="-3.05176e-05" y="0" width="461" height="376" filterUnits="userSpaceOnUse" color-interpolation-filters="sRGB">
<feFlood flood-opacity="0" result="BackgroundImageFix"/>
<feColorMatrix in="SourceAlpha" type="matrix" values="0 0 0 0 0 0 0 0 0 0 0 0 0 0 0 0 0 0 127 0" result="hardAlpha"/>
<feOffset dy="4"/>
<feGaussianBlur stdDeviation="2"/>
<feComposite in2="hardAlpha" operator="out"/>
<feColorMatrix type="matrix" values="0 0 0 0 0 0 0 0 0 0 0 0 0 0 0 0 0 0 0.4 0"/>
<feBlend mode="normal" in2="BackgroundImageFix" result="effect1_dropShadow_28_3"/>
<feBlend mode="normal" in="SourceGraphic" in2="effect1_dropShadow_28_3" result="shape"/>
</filter>
<filter id="filter1_d_28_3" x="-3.05176e-05" y="84" width="157.971" height="212" filterUnits="userSpaceOnUse" color-interpolation-filters="sRGB">
<feFlood flood-opacity="0" result="BackgroundImageFix"/>
<feColorMatrix in="SourceAlpha" type="matrix" values="0 0 0 0 0 0 0 0 0 0 0 0 0 0 0 0 0 0 127 0" result="hardAlpha"/>
<feOffset dy="4"/>
<feGaussianBlur stdDeviation="2"/>
<feComposite in2="hardAlpha" operator="out"/>
<feColorMatrix type="matrix" values="0 0 0 0 0 0 0 0 0 0 0 0 0 0 0 0 0 0 0.25 0"/>
<feBlend mode="normal" in2="BackgroundImageFix" result="effect1_dropShadow_28_3"/>
<feBlend mode="normal" in="SourceGraphic" in2="effect1_dropShadow_28_3" result="shape"/>
</filter>
<filter id="filter2_d_28_3" x="301.433" y="87" width="159.567" height="212" filterUnits="userSpaceOnUse" color-interpolation-filters="sRGB">
<feFlood flood-opacity="0" result="BackgroundImageFix"/>
<feColorMatrix in="SourceAlpha" type="matrix" values="0 0 0 0 0 0 0 0 0 0 0 0 0 0 0 0 0 0 127 0" result="hardAlpha"/>
<feOffset dy="4"/>
<feGaussianBlur stdDeviation="2"/>
<feComposite in2="hardAlpha" operator="out"/>
<feColorMatrix type="matrix" values="0 0 0 0 0 0 0 0 0 0 0 0 0 0 0 0 0 0 0.25 0"/>
<feBlend mode="normal" in2="BackgroundImageFix" result="effect1_dropShadow_28_3"/>
<feBlend mode="normal" in="SourceGraphic" in2="effect1_dropShadow_28_3" result="shape"/>
</filter>
<filter id="filter3_d_28_3" x="127" y="0" width="202" height="185.46" filterUnits="userSpaceOnUse" color-interpolation-filters="sRGB">
<feFlood flood-opacity="0" result="BackgroundImageFix"/>
<feColorMatrix in="SourceAlpha" type="matrix" values="0 0 0 0 0 0 0 0 0 0 0 0 0 0 0 0 0 0 127 0" result="hardAlpha"/>
<feOffset dy="4"/>
<feGaussianBlur stdDeviation="2"/>
<feComposite in2="hardAlpha" operator="out"/>
<feColorMatrix type="matrix" values="0 0 0 0 0 0 0 0 0 0 0 0 0 0 0 0 0 0 0.25 0"/>
<feBlend mode="normal" in2="BackgroundImageFix" result="effect1_dropShadow_28_3"/>
<feBlend mode="normal" in="SourceGraphic" in2="effect1_dropShadow_28_3" result="shape"/>
</filter>
<filter id="filter4_d_28_3" x="131" y="186.902" width="202" height="189.098" filterUnits="userSpaceOnUse" color-interpolation-filters="sRGB">
<feFlood flood-opacity="0" result="BackgroundImageFix"/>
<feColorMatrix in="SourceAlpha" type="matrix" values="0 0 0 0 0 0 0 0 0 0 0 0 0 0 0 0 0 0 127 0" result="hardAlpha"/>
<feOffset dy="4"/>
<feGaussianBlur stdDeviation="2"/>
<feComposite in2="hardAlpha" operator="out"/>
<feColorMatrix type="matrix" values="0 0 0 0 0 0 0 0 0 0 0 0 0 0 0 0 0 0 0.25 0"/>
<feBlend mode="normal" in2="BackgroundImageFix" result="effect1_dropShadow_28_3"/>
<feBlend mode="normal" in="SourceGraphic" in2="effect1_dropShadow_28_3" result="shape"/>
</filter>
<filter id="filter5_d_28_3" x="241.891" y="168.663" width="69.8658" height="66.039" filterUnits="userSpaceOnUse" color-interpolation-filters="sRGB">
<feFlood flood-opacity="0" result="BackgroundImageFix"/>
<feColorMatrix in="SourceAlpha" type="matrix" values="0 0 0 0 0 0 0 0 0 0 0 0 0 0 0 0 0 0 127 0" result="hardAlpha"/>
<feOffset dy="4"/>
<feGaussianBlur stdDeviation="2"/>
<feComposite in2="hardAlpha" operator="out"/>
<feColorMatrix type="matrix" values="0 0 0 0 0 0 0 0 0 0 0 0 0 0 0 0 0 0 0.25 0"/>
<feBlend mode="normal" in2="BackgroundImageFix" result="effect1_dropShadow_28_3"/>
<feBlend mode="normal" in="SourceGraphic" in2="effect1_dropShadow_28_3" result="shape"/>
</filter>
<filter id="filter6_d_28_3" x="152.951" y="137.802" width="69.8598" height="66.0889" filterUnits="userSpaceOnUse" color-interpolation-filters="sRGB">
<feFlood flood-opacity="0" result="BackgroundImageFix"/>
<feColorMatrix in="SourceAlpha" type="matrix" values="0 0 0 0 0 0 0 0 0 0 0 0 0 0 0 0 0 0 127 0" result="hardAlpha"/>
<feOffset dy="4"/>
<feGaussianBlur stdDeviation="2"/>
<feComposite in2="hardAlpha" operator="out"/>
<feColorMatrix type="matrix" values="0 0 0 0 0 0 0 0 0 0 0 0 0 0 0 0 0 0 0.25 0"/>
<feBlend mode="normal" in2="BackgroundImageFix" result="effect1_dropShadow_28_3"/>
<feBlend mode="normal" in="SourceGraphic" in2="effect1_dropShadow_28_3" result="shape"/>
</filter>
</defs>
</svg>
